#!OML:ASF F:\VICON\USERDATA\INSTALL\Justin_Nancy\Justin_Nancy.ASF
:FULLY-SPECIFIED
:DEGREES
299
root 0.171971 17.2892 5.25745 -1.21086 -1.87206 5.9381
lowerback 7.34288 0.372374 -5.40295
upperback 0.216451 0.039066 -0.0309926
thorax -3.90297 0.118144 3.00151
lowerneck -15.7443 -5.08896 -9.4871
upperneck 22.5156 -6.5355 7.4958
head 10.3691 -2.97727 3.35117
rclavicle 2.83268e-015 1.59028e-015
rhumerus -32.7823 -18.8745 -77.2663
rradius 29.6622
rwrist 7.85802
rhand -14.5443 13.2068
rfingers 7.12502
rthumb 11.6043 -16.4519
lclavicle 2.83268e-015 1.59028e-015
lhumerus -30.9039 8.41075 82.4157
lradius 22.5877
lwrist -13.8559
lhand -9.72381 26.7349
lfingers 7.12502
lthumb 16.2496 56.0739
rfemur -28.5825 -3.66945 16.1248
rtibia 72.0092
rfoot -7.39539 -5.70901
rtoes 2.52544
lfemur -10.0327 -2.44965 -30.428
ltibia 31.3622
lfoot -13.8673 4.21609
ltoes 1.96391
300
root 0.161393 17.276 5.42461 -1.08567 -1.70677 5.89337
lowerback 7.53905 0.313252 -5.43529
upperback 0.0674663 -0.0581652 0.000138685
thorax -4.15989 0.0807568 3.06327
lowerneck -15.9509 -5.14707 -9.43829
upperneck 22.7614 -6.61517 7.44722
head 10.5023 -3.01072 3.31423
rclavicle -9.81499e-015 -2.78299e-015
rhumerus -33.393 -18.6289 -77.257
rradius 29.9914
rwrist 7.81944
rhand -14.58 12.9652
rfingers 7.12502
rthumb 11.5699 -16.6954
lclavicle -9.81499e-015 -2.78299e-015
lhumerus -30.4418 7.67243 82.7306
lradius 22.8002
lwrist -13.3686
lhand -10.0386 26.3176
lfingers 7.12502
lthumb 15.9465 55.6811
rfemur -29.764 -3.75988 16.3779
rtibia 70.6327
rfoot -8.89782 -6.43203
rtoes -2.25328
lfemur -9.59001 -2.53124 -30.4111
ltibia 31.4665
lfoot -14.2867 4.18179
ltoes 2.44563
301
root 0.153274 17.2567 5.59556 -1.10578 -1.55296 6.04564
lowerback 7.67772 0.243076 -5.67084
upperback 0.132181 -0.178992 0.00562296
thorax -4.1587 0.0243216 3.21545
lowerneck -16.3418 -5.18092 -9.46553
upperneck 22.844 -6.62958 7.4674
head 10.6111 -3.00841 3.31943
rclavicle -2.26118e-015 5.56597e-015
rhumerus -33.4 -18.5581 -77.3384
rradius 29.9715
rwrist 7.95843
rhand -14.6174 12.752
rfingers 7.12502
rthumb 11.5337 -16.9107
lclavicle -2.26118e-015 5.56597e-015
lhumerus -29.7864 7.23952 83.0036
lradius 23.1219
lwrist -13.1672
lhand -9.82522 26.3029
lfingers 7.12502
lthumb 16.1519 55.6499
rfemur -30.6921 -3.85059 16.3394
rtibia 69.0169
rfoot -9.30544 -7.05183
rtoes -1.95284
lfemur -8.89604 -2.60471 -30.6309
ltibia 31.4914
lfoot -14.5563 3.73462
ltoes 5.23189
302
root 0.145037 17.2472 5.77237 -1.1015 -1.26526 6.20405
lowerback 7.58585 0.119582 -5.91597
upperback 0.266803 -0.353126 0.0291654
thorax -3.9481 -0.0660676 3.39607
lowerneck -16.446 -5.1467 -9.47048
upperneck 22.5381 -6.54737 7.45719
head 10.5112 -2.96959 3.32265
rclavicle -1.83876e-015 1.03368e-014
rhumerus -33.2314 -18.6813 -77.3645
rradius 29.8315
rwrist 8.22448
rhand -14.6552 12.776
rfingers 7.12502
rthumb 11.4972 -16.8887
lclavicle -1.83876e-015 1.03368e-014
lhumerus -29.2572 6.6713 83.3144
lradius 23.9151
lwrist -13.1913
lhand -8.38874 27.4785
lfingers 7.12502
lthumb 17.5348 56.7077
rfemur -31.4657 -3.9871 16.2642
rtibia 67.1264
rfoot -9.25375 -7.7422
rtoes -3.41543
lfemur -8.08724 -2.55051 -30.8181
ltibia 31.3837
lfoot -15.5099 4.03088
ltoes 3.98408
303
root 0.132677 17.2501 5.94534 -0.959118 -1.0345 6.13438
lowerback 7.52946 0.0447292 -5.93305
upperback 0.288461 -0.448032 0.0661668
thorax -3.88364 -0.114886 3.45388
lowerneck -16.5139 -5.1174 -9.35078
upperneck 22.2838 -6.52318 7.48212
head 10.4256 -2.94354 3.31051
rclavicle -2.6339e-015 -1.59028e-015
rhumerus -33.2584 -18.9761 -77.293
rradius 29.6537
rwrist 8.45239
rhand -14.5576 12.9368
rfingers 7.12502
rthumb 11.5914 -16.7227
lclavicle -2.6339e-015 -1.59028e-015
lhumerus -28.8429 5.90299 83.6085
lradius 24.5821
lwrist -12.944
lhand -8.50668 27.4154
lfingers 7.12502
lthumb 17.4213 56.6547
rfemur -32.2295 -3.96913 16.4768
rtibia 64.9573
rfoot -9.12973 -8.6898
rtoes -5.88496
lfemur -7.40861 -2.43344 -30.7134
ltibia 31.0922
lfoot -15.6766 3.4815
ltoes 5.11421
304
root 0.120731 17.2502 6.11948 -0.708388 -0.8952 6.16494
lowerback 7.46107 -0.0372259 -6.07813
upperback 0.213355 -0.565522 0.111064
thorax -3.90994 -0.1676 3.59464
lowerneck -16.6476 -5.08984 -9.44053
upperneck 22.1879 -6.49074 7.6742
head 10.4235 -2.91125 3.3968
rclavicle 2.5842e-015 -9.54166e-015
rhumerus -33.4941 -18.9834 -77.221
rradius 29.6749
rwrist 8.58211
rhand -14.3358 13.175
rfingers 7.12502
rthumb 11.8053 -16.4723
lclavicle 2.5842e-015 -9.54166e-015
lhumerus -28.5083 5.27131 83.8845
lradius 25.0935
lwrist -12.6527
lhand -9.75074 26.3839
lfingers 7.12502
lthumb 16.2237 55.7251
rfemur -32.9992 -3.94487 16.5532
rtibia 62.6263
rfoot -8.28482 -9.31503
rtoes -1.74451
lfemur -6.80389 -2.20418 -30.7003
ltibia 30.6374
lfoot -16.3123 3.97234
ltoes 1.69903
305
root 0.114055 17.2471 6.29943 -0.571082 -0.646459 6.38393
lowerback 7.33448 -0.184668 -6.35974
upperback 0.1697 -0.777594 0.124417
thorax -3.85833 -0.268106 3.78794
lowerneck -16.3768 -4.9702 -9.53749
upperneck 21.8736 -6.31673 7.73918
head 10.2467 -2.83833 3.46107
rclavicle -8.49804e-015 1.03368e-014
rhumerus -33.8571 -18.7446 -77.1797
rradius 29.9037
rwrist 8.62452
rhand -14.4209 13.2509
rfingers 7.12502
rthumb 11.7233 -16.4011
lclavicle -8.49804e-015 1.03368e-014
lhumerus -28.2723 4.75842 84.1261
lradius 25.695
lwrist -12.5959
lhand -10.3623 25.3354
lfingers 7.12502
lthumb 15.6347 54.7236
rfemur -33.5391 -4.11283 16.3333
rtibia 60.1297
rfoot -6.56915 -9.73949
rtoes 7.7339
lfemur -5.99072 -2.02965 -30.9409
ltibia 30.072
lfoot -16.4147 4.55817
ltoes 0.638792
306
root 0.107307 17.2432 6.47669 -0.39474 -0.44944 6.66925
lowerback 7.264 -0.319934 -6.71649
upperback 0.0867348 -0.985378 0.126328
thorax -3.8769 -0.361848 4.01168
lowerneck -16.2331 -4.83826 -9.58633
upperneck 21.8858 -6.10824 7.64933
head 10.2016 -2.76008 3.46948
rclavicle 6.21202e-015 1.59028e-015
rhumerus -34.0615 -18.3934 -77.2052
rradius 29.9518
rwrist 8.31379
rhand -14.7383 13.2735
rfingers 7.12502
rthumb 11.4171 -16.3957
lclavicle 6.21202e-015 1.59028e-015
lhumerus -27.9842 4.28158 84.3606
lradius 26.1132
lwrist -12.0238
lhand -11.1538 24.0577
lfingers 7.12502
lthumb 14.8723 53.5039
rfemur -34.0996 -4.16712 16.0199
rtibia 57.4283
rfoot -8.28953 -10.5149
rtoes 0.705825
lfemur -5.15501 -1.77536 -31.2509
ltibia 29.4199
lfoot -16.7811 3.99271
ltoes 0.139434
307
root 0.094675 17.2389 6.65448 -0.158171 -0.395962 6.91918
lowerback 7.20271 -0.340772 -7.06108
upperback 0.0188186 -1.04133 0.0897298
thorax -3.90235 -0.38072 4.17271
lowerneck -16.4643 -4.86438 -9.47746
upperneck 22.0333 -6.11816 7.47779
head 10.2902 -2.76994 3.38722
rclavicle -9.0447e-015 -5.56597e-015
rhumerus -34.0477 -18.8576 -77.0322
rradius 29.5452
rwrist 8.53251
rhand -14.8828 13.9502
rfingers 7.12502
rthumb 11.2777 -15.7267
lclavicle -9.0447e-015 -5.56597e-015
lhumerus -27.4489 3.55151 84.6384
lradius 26.6153
lwrist -10.888
lhand -10.7298 25.1184
lfingers 7.12502
lthumb 15.2807 54.5339
rfemur -34.5899 -3.93047 15.7501
rtibia 54.5008
rfoot -7.73635 -11.2376
rtoes 1.35902
lfemur -4.35998 -1.47548 -31.4856
ltibia 28.711
lfoot -16.8448 3.87887
ltoes 0.848469
308
root 0.0780569 17.2401 6.82928 0.0555916 -0.282027 6.941
lowerback 7.13583 -0.350182 -7.15236
upperback -0.00373279 -1.05722 0.0813363
thorax -3.88512 -0.386962 4.21591
lowerneck -16.6091 -4.94309 -9.42826
upperneck 21.8839 -6.23136 7.52124
head 10.2748 -2.80926 3.37372
rclavicle -1.87852e-014 1.59028e-015
rhumerus -34.2222 -19.3109 -76.8674
rradius 29.4189
rwrist 8.60814
rhand -14.6775 14.5837
rfingers 7.12502
rthumb 11.4758 -15.0822
lclavicle -1.87852e-014 1.59028e-015
lhumerus -26.9324 2.6799 84.8811
lradius 27.2967
lwrist -10.2409
lhand -9.82569 26.8455
lfingers 7.12502
lthumb 16.1515 56.1925
rfemur -34.8573 -3.57352 15.7001
rtibia 51.3313
rfoot -6.88261 -12.0174
rtoes 1.44335
lfemur -3.57021 -1.19242 -31.4165
ltibia 27.9619
lfoot -17.0291 3.40438
ltoes 1.9381
